<svg aria-hidden="true" style="position: absolute; width: 0; height: 0; overflow: hidden;" version="1.1" xmlns="http://www.w3.org/2000/svg" xmlns:xlink="http://www.w3.org/1999/xlink">
<defs>
<symbol id="icon-Dribble" viewBox="0 0 32 32">
<title>Dribble</title>
<path d="M28.549 10.719c-0.339-0.807-0.762-1.583-1.253-2.307-0.491-0.72-1.048-1.396-1.667-2.009-0.613-0.613-1.289-1.17-2.012-1.658-0.729-0.488-1.509-0.911-2.316-1.253-0.821-0.342-1.685-0.61-2.563-0.788-0.893-0.185-1.818-0.277-2.738-0.277-0.926 0-1.848 0.092-2.744 0.277-0.875 0.179-1.738 0.447-2.562 0.788-0.804 0.342-1.586 0.765-2.316 1.253-0.717 0.488-1.396 1.045-2.015 1.658-0.613 0.613-1.176 1.288-1.658 2.009-0.494 0.723-0.917 1.5-1.259 2.307-0.348 0.815-0.616 1.678-0.795 2.551-0.184 0.89-0.277 1.813-0.277 2.729 0 0.923 0.092 1.842 0.277 2.735 0.179 0.869 0.447 1.729 0.795 2.551 0.342 0.8 0.765 1.58 1.259 2.306 0.482 0.72 1.045 1.39 1.658 2.009 0.619 0.613 1.298 1.17 2.015 1.649 0.729 0.494 1.512 0.914 2.316 1.256 0.824 0.348 1.688 0.613 2.562 0.791 0.896 0.182 1.819 0.277 2.744 0.277 0.92 0 1.845-0.095 2.738-0.277 0.878-0.178 1.741-0.443 2.563-0.791 0.807-0.342 1.586-0.762 2.316-1.256 0.723-0.479 1.399-1.036 2.012-1.649 0.619-0.619 1.176-1.288 1.667-2.009 0.491-0.726 0.914-1.506 1.253-2.306 0.348-0.822 0.619-1.682 0.795-2.551 0.184-0.893 0.28-1.812 0.28-2.735 0-0.917-0.095-1.839-0.28-2.729-0.176-0.872-0.446-1.735-0.795-2.551zM15.998 4.409c2.946 0 5.637 1.089 7.685 2.89-0.030 0.048-1.685 2.559-6.078 4.199-1.988-3.64-4.173-6.533-4.345-6.762 0.878-0.212 1.795-0.328 2.738-0.328zM13.213 4.745c-0.012 0.003-0.036 0.009-0.036 0.009 0.021 0 0.033-0.006 0.033-0.006s0.003-0.003 0.003-0.003zM11.034 5.519c0.158 0.205 2.307 3.11 4.321 6.676-5.583 1.479-10.435 1.423-10.741 1.414 0.756-3.589 3.179-6.569 6.42-8.089zM7.344 23.739c0 0 0.003 0.003 0.003 0.003s-0.003-0.003-0.003-0.003zM7.341 23.739c-1.848-2.051-2.976-4.765-2.976-7.741 0-0.122 0.009-0.244 0.012-0.366 0.205 0.006 5.952 0.134 11.944-1.652 0.33 0.649 0.652 1.313 0.946 1.97-0.158 0.045-0.31 0.093-0.461 0.137-6.274 2.024-9.458 7.646-9.464 7.652zM8.85 25.138c0 0 0.006-0.015 0.006-0.018-0.083-0.066-0.184-0.116-0.265-0.185 0.155 0.122 0.259 0.203 0.259 0.203zM16.001 27.59c-2.7 0-5.17-0.934-7.143-2.47 0.083-0.182 2.354-4.878 9.119-7.223 0.030-0.009 0.051-0.018 0.077-0.027 1.637 4.238 2.316 7.789 2.485 8.801-1.393 0.596-2.931 0.92-4.539 0.92zM22.498 25.611c-0.116-0.699-0.738-4.098-2.262-8.277 3.756-0.601 7.009 0.429 7.247 0.506-0.515 3.229-2.372 6.015-4.985 7.771zM19.528 15.504c-0.083-0.2-0.167-0.396-0.253-0.598-0.244-0.568-0.5-1.131-0.774-1.681 4.595-1.866 6.461-4.556 6.482-4.586 1.634 1.973 2.616 4.494 2.646 7.244-0.17-0.035-4.104-0.878-8.101-0.378zM13.213 4.745c0 0-0.003 0.003-0.003 0.003s-0.012 0.006-0.024 0.006c0 0 0.015-0.006 0.027-0.009zM8.85 25.138c0 0-0.104-0.081-0.259-0.203 0.080 0.069 0.181 0.119 0.265 0.185 0 0.003-0.006 0.018-0.006 0.018z"></path>
</symbol>
<symbol id="icon-Google" viewBox="0 0 32 32">
<title>Google</title>
<path d="M19.892 1.748c0 0-8.433 0-8.433 0-4.278 0-7.845 3.14-7.845 6.6 0 3.534 2.345 6.35 6.369 6.35 0.278 0 0.552-0.015 0.817-0.034-0.262 0.5-0.447 1.057-0.447 1.638 0 0.981 0.541 1.541 1.211 2.194-0.506 0-0.995 0.012-1.53 0.012-4.898 0-8.328 3.356-8.328 6.582 0 3.175 4.135 5.162 9.033 5.162 5.586 0 9.017-3.159 9.017-6.334 0-2.547-0.55-3.825-3.272-5.856-0.781-0.587-2.481-1.787-2.481-2.591 0-0.941 0.267-1.406 1.694-2.513 1.456-1.137 2.489-2.634 2.489-4.491 0-2.022-0.829-3.859-2.392-4.75 0 0 2.212 0 2.212 0s1.886-1.968 1.886-1.968zM17.033 23.37c0.070 0.294 0.109 0.597 0.109 0.907 0 2.562-1.659 4.568-6.42 4.568-3.387 0-5.833-2.134-5.833-4.7 0-2.512 2.867-4.684 6.256-4.646 0.788 0.009 1.527 0.137 2.194 0.353 1.839 1.272 3.32 2.066 3.694 3.519zM11.611 13.414c-2.275-0.072-4.433-2.147-4.824-5.119-0.397-2.975 1.13-5.25 3.403-5.181 2.272 0.069 4.215 2.506 4.608 5.482 0.391 2.972-0.917 4.884-3.187 4.819zM26.403 6.011c0 0 3.89 0 3.89 0s0 1.934 0 1.934c0 0-3.89 0-3.89 0s0 3.878 0 3.878c0 0-1.947 0-1.947 0s0-3.878 0-3.878c0 0-3.886 0-3.886 0s0-1.934 0-1.934c0 0 3.886 0 3.886 0s0-3.878 0-3.878c0 0 1.947 0 1.947 0s0 3.878 0 3.878z"></path>
</symbol>
<symbol id="icon-Twitter" viewBox="0 0 37 32">
<title>Twitter</title>
<path d="M2.773 25.947c2.887 1.844 6.311 2.92 9.999 2.92 11.995 0 18.554-9.903 18.554-18.486 0-0.281-0.005-0.562-0.019-0.84 1.274-0.913 2.378-2.059 3.253-3.365-1.167 0.521-2.423 0.864-3.743 1.021 1.344-0.799 2.379-2.073 2.865-3.59-1.259 0.743-2.656 1.284-4.142 1.573-1.188-1.26-2.884-2.049-4.757-2.049-3.604 0-6.521 2.907-6.521 6.497 0 0.51 0.056 1.003 0.167 1.479-5.42-0.271-10.227-2.858-13.441-6.788-0.559 0.962-0.882 2.076-0.882 3.268 0 2.253 1.149 4.243 2.899 5.406-1.070-0.028-2.073-0.323-2.955-0.812 0 0 0 0.083 0 0.083 0 3.146 2.25 5.775 5.231 6.372-0.544 0.149-1.122 0.229-1.717 0.229-0.42 0-0.83-0.042-1.226-0.118 0.83 2.584 3.238 4.462 6.090 4.511-2.233 1.743-5.042 2.781-8.099 2.781-0.526 0-1.043-0.027-1.556-0.090z"></path>
</symbol>
<symbol id="icon-Facebook" viewBox="0 0 18 32">
<title>Facebook</title>
<path d="M4.978 30.25c0 0 5.941 0 5.941 0s0-14.241 0-14.241c0 0 4.009 0 4.009 0s0.519-5.031 0.519-5.031c0 0-4.528 0-4.528 0s0-2.956 0-2.956c0-1.109 0.74-1.372 1.259-1.372 0 0 3.194 0 3.194 0s0-4.884 0-4.884c0 0-4.4-0.016-4.4-0.016-4.883 0-5.994 3.644-5.994 5.975 0 0 0 3.253 0 3.253s-2.825 0-2.825 0c0 0 0 5.031 0 5.031s2.825 0 2.825 0c0 0 0 14.241 0 14.241z"></path>
</symbol>
<symbol id="icon-plug" viewBox="0 0 35 32">
<title>plug</title>
<path d="M32.533 10.133c0 0-7.467 0-7.467 0-0.117-2.003-0.92-3.54-1.824-4.937-0.95-1.466-2.432-2.413-4.043-2.53 0 0 0 0 0 0s-0.533 0-0.533 0c0 0 0.533 0 0.533 0-0.002 0-0.533 0-0.533 0s-7.467 0-7.467 0c-0.192-1.045-1.033-2.131-2.133-2.133 0 0-2.133 0-2.133 0-1.238 0.002-2.13 0.896-2.133 2.133 0 0 0 3.733 0 3.733s-3.2 0-3.2 0c-0.467 0-0.533 0.48-0.533 0.533 0 0.618 0.122 1.067 0.533 1.067 0 0 3.2 0 3.2 0s0 6.4 0 6.4c0 0-3.085 0.058-3.085 0.058-0.411 0-0.747 0.336-0.747 0.748 0 0 0 0 0 0 0 0.412 0.337 0.749 0.747 0.749 0 0 3.085 0.045 3.085 0.045s0 3.2 0 3.2c0.003 1.239 0.895 2.13 2.133 2.133 0 0 2.133 0 2.133 0 0.953-0.003 1.808-0.765 2.133-1.6 0 0 8 0 8 0s-0.201 0.021-0.196 0.021c0 0 0.008 0 0.008 0s0.286 0 0.286 0c0 0 0-0.023 0-0.023 1.611-0.119 2.994-1.149 3.944-2.618 0.904-1.393 1.707-3.377 1.824-5.38 0 0 7.467 0 7.467 0 0.406 0 0.533 0.662 0.533 1.067 0 0 0 12.8 0 12.8 0 0.407-0.127 0.53-0.533 0.533 0 0-16.533 0-16.533 0-1.239 0.002-2.131 0.895-2.133 2.133 0 0 0 3.2 0 3.2s1.6 0 1.6 0c0 0-0.017-2.991-0.017-2.991 0.002-0.406 0.343-0.746 0.749-0.746 0 0 16.322 0 16.322 0 1.238-0.004 2.141-0.891 2.145-2.129 0 0 0-12.8 0-12.8-0.005-1.238-0.895-2.666-2.133-2.667zM10.001 18.943c0 0.406-0.341 0.747-0.747 0.747 0 0-2.056 0-2.056 0-0.406-0-0.746-0.341-0.747-0.747 0 0 0-15.979 0-15.979 0.001-0.406 0.611-0.828 1.017-0.83 0 0 1.6 0 1.6 0 0.406 0.002 0.934 0.425 0.934 0.83 0 0 0 15.979 0 15.979zM11.733 18.133c0 0 0-13.867 0-13.867s3.733 0 3.733 0c0 0 2.133 0 2.133 0s0 0 0 0 0 13.867 0 13.867c0 0 0 0 0 0s-2.133 0-2.133 0c0 0-3.733 0-3.733 0zM21.988 16.299c-0.764 1.166-1.811 1.725-2.788 1.834 0 0 0-13.867 0-13.867 0.978 0.11 2.025 0.58 2.788 1.746 0.831 1.274 1.377 3.107 1.375 5.145 0.002 2.034-0.544 3.868-1.375 5.141z"></path>
</symbol>
<symbol id="icon-monitor" viewBox="0 0 41 32">
<title>monitor</title>
<path d="M11.789 31.439c0 0 0-1.684 0-1.684s17.965 0 17.965 0c0 0 0 1.684 0 1.684s-17.965 0-17.965 0zM37.614 0.561c0 0-34.246 0-34.246 0-1.62 0.001-2.805 1.185-2.807 2.807 0 0 0 20.211 0 20.211 0.002 1.623 1.188 3.365 2.807 3.368 0 0 34.246 0 34.246 0 1.621-0.003 2.799-1.746 2.807-3.368 0 0 0-20.211 0-20.211-0.008-1.624-1.186-2.804-2.807-2.807zM38.754 23.709c0 0.503-0.64 1.554-1.14 1.554 0 0-34.246 0-34.246 0-0.503 0-1.144-1.051-1.144-1.554 0 0 0-20.289 0-20.289 0-0.504 0.64-1.171 1.144-1.174 0 0 34.246 0 34.246 0 0.5 0.003 1.14 0.67 1.14 1.174 0 0 0 20.289 0 20.289z"></path>
</symbol>
<symbol id="icon-pencil" viewBox="0 0 33 32">
<title>pencil</title>
<path d="M27.185 6.152c0 0-15.494 15.493-15.494 15.493s-1.077-1.077-1.077-1.077c0 0 15.493-15.492 15.493-15.492s-2.569-2.566-2.569-2.566c-0.153-0.154-0.353-0.231-0.561-0.232-0.207 0.001-0.406 0.078-0.56 0.232 0 0-16.333 16.334-16.333 16.334s-1.078-1.077-1.078-1.077c0 0 16.333-16.334 16.333-16.334 0.451-0.453 1.049-0.678 1.639-0.678 0.591 0 1.187 0.226 1.639 0.677 0 0 6.212 6.21 6.212 6.21 0.451 0.45 0.677 1.046 0.677 1.637 0 0.589-0.226 1.188-0.677 1.638 0 0-16.337 16.335-16.337 16.335s-1.077-1.077-1.077-1.077c0 0 16.336-16.335 16.336-16.335s-0.001 0-0.001 0c0.154-0.152 0.231-0.353 0.232-0.561-0.001-0.207-0.078-0.408-0.231-0.56 0 0-2.565-2.567-2.565-2.567zM4.053 21.951c-0.316-0.309-0.688-0.557-1.183-0.565-0.386-0.010-0.786 0.214-0.989 0.508-0.214 0.293-0.299 0.622-0.331 0.973 0 0-0.528 6.154-0.528 6.154s0-0 0-0c-0.008 0.064-0.010 0.132-0.010 0.2-0.002 0.551 0.209 1.074 0.584 1.442 0.367 0.37 0.886 0.583 1.436 0.583 0 0 0.006 0 0.006 0 0.060 0 0.119-0.003 0.18-0.007 0 0 6.176-0.529 6.176-0.529 0.35-0.032 0.679-0.12 0.97-0.333 0.295-0.205 0.518-0.602 0.508-0.988-0.008-0.495-0.254-0.868-0.564-1.182 0 0-6.256-6.255-6.256-6.255zM3.102 29.72c-0.015 0-0.040 0.002-0.065 0.002-0.337-0.023-0.479-0.165-0.503-0.502 0-0.003-0.001-0.024-0.005-0.063 0 0 0.009 0 0.009 0s0.518-6.049 0.518-6.049c0 0 6.094 6.095 6.094 6.095s-6.048 0.517-6.048 0.517z"></path>
</symbol>
<symbol id="icon-molecule" viewBox="0 0 42 32">
<title>molecule</title>
<path d="M40.609 22.7c-0.792-1.754-2.854-2.533-4.608-1.741-0.842 0.381-1.457 1.055-1.783 1.847 0 0-11.981-4.526-11.981-4.526 0.215-0.93 0.143-1.933-0.281-2.87-0.679-1.504-2.080-2.45-3.608-2.624 0 0 0.088-4.588 0.088-4.588 0.333-0.043 0.664-0.135 0.986-0.28 1.754-0.792 2.533-2.854 1.741-4.609s-2.855-2.533-4.609-1.741c-1.753 0.792-2.533 2.855-1.741 4.609 0.495 1.097 1.488 1.812 2.592 2.001 0 0-0.088 4.605-0.088 4.605-0.45 0.052-0.899 0.173-1.334 0.369-2.274 1.027-3.284 3.701-2.258 5.975 0.069 0.152 0.146 0.296 0.229 0.436 0 0-6.639 5.239-6.639 5.239-0.996-0.97-2.519-1.289-3.863-0.681-1.754 0.792-2.533 2.854-1.74 4.608s2.854 2.533 4.608 1.742c1.754-0.793 2.532-2.856 1.74-4.61-0.037-0.081-0.080-0.158-0.121-0.236 0 0 6.641-5.24 6.641-5.24 1.287 1.345 3.327 1.807 5.12 0.997 0.997-0.45 1.751-1.218 2.196-2.129 0 0 12.073 4.559 12.073 4.559-0.054 0.581 0.035 1.184 0.292 1.754 0.792 1.753 2.855 2.533 4.608 1.741 1.755-0.792 2.533-2.855 1.741-4.609zM19.274 20.442c-1.755 0.789-3.815 0.012-4.609-1.74-0.79-1.755-0.011-3.814 1.741-4.609 1.755-0.789 3.813-0.011 4.608 1.741 0.789 1.755 0.011 3.814-1.741 4.608z"></path>
</symbol>
<symbol id="icon-Search" viewBox="0 0 31 32">
<title>Search</title>
<path d="M29.32 27.513c0 0-6.57-6.57-6.57-6.57 1.336-1.898 2.129-4.207 2.129-6.706 0-6.444-5.223-11.667-11.668-11.667-6.443 0-11.664 5.223-11.664 11.667 0 6.443 5.221 11.664 11.664 11.665 2.983 0 5.695-1.128 7.758-2.969 0 0 6.465 6.465 6.465 6.465s1.887-1.885 1.887-1.885zM4.213 14.237c0.008-4.971 4.029-8.992 8.997-9 4.971 0.008 8.992 4.029 9 9-0.008 4.971-4.029 8.992-9 8.998-4.969-0.007-8.99-4.028-8.997-8.998z"></path>
</symbol>
</defs>
</svg>
