<svg aria-hidden="true" style="position: absolute; width: 0; height: 0; overflow: hidden;" version="1.1" xmlns="http://www.w3.org/2000/svg" xmlns:xlink="http://www.w3.org/1999/xlink">
<defs>
<symbol id="Coffee" viewBox="0 0 32 32">
<path d="M25.769 25.771c-1.013-0.072-2.173-0.128-3.425-0.171 1.142-0.996 2.106-2.287 2.815-3.789 0.346 0.35 0.776 0.605 1.264 0.724 0.213 0.053 0.429 0.078 0.643 0.078 0.49 0 0.972-0.136 1.401-0.4 0.617-0.38 1.050-0.98 1.221-1.689s0.057-1.444-0.318-2.067c-0.63-1.045-1.845-1.499-2.962-1.218 0.049-0.487 0.081-0.98 0.081-1.483 0-0.526-0.421-0.952-0.941-0.952 0 0-17.416 0-17.416 0-0.52 0-0.941 0.426-0.941 0.952 0 4.072 1.641 7.671 4.14 9.844-1.249 0.043-2.407 0.1-3.419 0.171-3.522 0.249-4.546 0.486-4.546 1.576s1.024 1.327 4.546 1.576c2.388 0.169 5.559 0.262 8.928 0.262s6.54-0.093 8.928-0.262c3.522-0.249 4.546-0.487 4.546-1.576s-1.024-1.327-4.546-1.576zM26.22 18.528c0.007-0.005 0.015-0.004 0.022-0.009 0.741-0.456 1.712-0.218 2.164 0.532 0.219 0.363 0.285 0.791 0.185 1.204s-0.351 0.762-0.711 0.983c-0.359 0.222-0.782 0.288-1.19 0.188-0.409-0.101-0.754-0.356-0.973-0.719-0.018-0.030-0.045-0.048-0.067-0.073 0.241-0.672 0.431-1.377 0.571-2.106zM9.108 16.707c0 0 15.466 0 15.466 0-0.37 5.127-3.697 9.153-7.733 9.153s-7.363-4.026-7.733-9.153zM15.096 12.86c-0.417-0.039-1.213-0.315-1.591-1.107-0.47-0.982-0.126-2.382 1.021-4.16 0.088-0.136 0.17-0.267 0.246-0.394 0 0 0.036-0.062 0.036-0.062 0.991-1.67 0.9-2.399 0.814-2.635-0.058-0.16-0.16-0.211-0.164-0.213-0.367-0.108-0.596-0.534-0.477-0.937 0.116-0.397 0.544-0.631 0.939-0.514 0.079 0.023 0.8 0.257 1.12 1.137 0.356 0.98 0.032 2.323-0.963 3.99-0.937 1.75-0.216 3.853-0.208 3.874 0.088 0.246 0.046 0.517-0.113 0.725-0.143 0.187-0.366 0.297-0.598 0.297 0 0-0.063-0.003-0.063-0.003zM19.112 13.001c-0.392-0.038-0.925-0.275-1.185-0.82-0.333-0.696-0.123-1.611 0.643-2.798 0.046-0.072 0.090-0.142 0.131-0.21 0 0 0.043-0.073 0.043-0.073 0.591-0.994 0.487-1.355 0.474-1.393 0.002 0.001 0.034 0.015 0.077 0.027-0.181-0.054-0.33-0.177-0.42-0.345s-0.11-0.363-0.056-0.546c0.107-0.366 0.514-0.592 0.881-0.484 0.104 0.031 0.619 0.217 0.85 0.852 0.249 0.687 0.049 1.559-0.612 2.665-0.514 0.962-0.11 2.154-0.106 2.166 0.083 0.232 0.043 0.487-0.107 0.683-0.134 0.174-0.344 0.278-0.56 0.278 0 0-0.053-0.002-0.053-0.002z"></path>
</symbol>
<symbol id="Flask" viewBox="0 0 27 32">
<path d="M23.502 26.646c0 0-5.448-14.739-5.448-14.739s0-4.337 0-4.337c1.028-0.356 1.768-1.329 1.768-2.469 0 0 0-0.708 0-0.708 0-1.442-1.18-2.614-2.63-2.614 0 0-7.777 0-7.777 0-1.45 0-2.63 1.172-2.63 2.614 0 0 0 0.708 0 0.708 0 1.14 0.738 2.111 1.768 2.468 0 0 0 4.338 0 4.338s-5.438 14.711-5.438 14.711c-0.331 0.807-0.236 1.72 0.253 2.446 0.49 0.723 1.305 1.155 2.183 1.155 0 0 15.506 0 15.506 0 0.877 0 1.693-0.431 2.182-1.156s0.584-1.638 0.264-2.416zM9.084 23.305c0-0.494 0.401-0.891 0.894-0.891 0.497 0 0.898 0.397 0.898 0.891s-0.401 0.891-0.898 0.891c-0.493 0-0.894-0.398-0.894-0.891zM14.86 24.082c0.856 0 1.549 0.691 1.549 1.538 0 0.851-0.693 1.542-1.549 1.542s-1.548-0.691-1.548-1.542c0-0.847 0.691-1.538 1.548-1.538zM13.542 20.707c0-0.61 0.5-1.109 1.118-1.109 0.614 0 1.114 0.5 1.114 1.109 0 0.612-0.5 1.109-1.114 1.109-0.617 0-1.118-0.498-1.118-1.109zM10.292 12.214c0 0 0-5.365 0-5.365s-0.008-0.865-0.008-0.865c0 0-0.87 0-0.87 0-0.491 0-0.89-0.397-0.89-0.884 0 0 0-0.708 0-0.708 0-0.488 0.4-0.885 0.89-0.885 0 0 7.777 0 7.777 0 0.491 0 0.89 0.397 0.89 0.885 0 0 0 0.708 0 0.708 0 0.487-0.399 0.884-0.898 0.884 0 0-0.87 0-0.87 0s0 6.229 0 6.229c0 0 1.526 4.127 1.526 4.127-0.020 0.020-0.038 0.032-0.059 0.053-1.136 1.173-9.437 1.309-9.437 1.309s-0.080 0-0.080 0c0 0 2.029-5.489 2.029-5.489zM12.698 15.545c-0.67 0-1.213-0.541-1.213-1.206 0-0.662 0.542-1.204 1.213-1.204 0.666 0 1.21 0.542 1.21 1.204 0 0.665-0.543 1.206-1.21 1.206z"></path>
</symbol>
<symbol id="Plane" viewBox="0 0 34 32">
<path d="M30.997 2.726c0.087 0.069 0.127 0.183 0.1 0.292 0 0-5.176 21.159-5.176 21.159-0.019 0.077-0.069 0.14-0.137 0.18-0.043 0.024-0.093 0.038-0.142 0.038-0.028 0-0.056-0.005-0.083-0.013 0 0-10.353-3.127-10.353-3.127-0.092-0.028-0.164-0.1-0.192-0.191-0.027-0.093-0.006-0.192 0.056-0.265 0 0 10.306-12.095 10.306-12.095s-13.417 11.372-13.417 11.372c-0.075 0.069-0.182 0.090-0.278 0.060 0 0-8.821-2.782-8.821-2.782-0.11-0.036-0.189-0.134-0.199-0.248-0.009-0.116 0.051-0.225 0.156-0.277 0 0 27.872-14.132 27.872-14.132 0.098-0.052 0.219-0.039 0.309 0.029zM18.235 24.345c0.085 0.026 0.154 0.090 0.185 0.174 0.031 0.082 0.021 0.175-0.027 0.25 0 0-2.861 4.483-2.861 4.483-0.055 0.084-0.146 0.133-0.243 0.133-0.027 0-0.054-0.004-0.080-0.011-0.124-0.036-0.208-0.147-0.208-0.274 0 0 0-5.355 0-5.355 0-0.090 0.043-0.175 0.117-0.229s0.168-0.071 0.255-0.043c0 0 2.861 0.873 2.861 0.873z"></path>
</symbol>
<symbol id="TV" viewBox="0 0 30 32">
<path d="M26.661 9.601c0 0-9.081 0-9.081 0s3.582-4.3 3.582-4.3c0.057 0.010 0.107 0.032 0.166 0.032 0.59 0 1.067-0.477 1.067-1.067 0-0.587-0.477-1.067-1.067-1.067-0.587 0-1.067 0.481-1.067 1.067 0 0.129 0.032 0.247 0.073 0.361 0 0-4.144 4.974-4.144 4.974s-0.39 0-0.39 0c0 0-4.142-4.974-4.142-4.974 0.040-0.114 0.071-0.232 0.071-0.361 0-0.587-0.477-1.067-1.067-1.067-0.588 0-1.067 0.481-1.067 1.067 0 0.59 0.479 1.067 1.067 1.067 0.059 0 0.111-0.022 0.166-0.032 0 0 3.583 4.3 3.583 4.3s-9.081 0-9.081 0c-1.177 0-2.132 0.957-2.132 2.134 0 0 0 14.94 0 14.94 0 1.178 0.955 2.133 2.132 2.133 0 0 21.329 0 21.329 0 1.177 0 2.132-0.955 2.132-2.133 0 0 0-14.94 0-14.94 0-1.177-0.955-2.134-2.132-2.134zM22.395 24.54c0 1.178-0.954 2.134-2.133 2.134 0 0-12.796 0-12.796 0-1.177 0-2.133-0.956-2.133-2.134 0 0 0-10.671 0-10.671 0-1.179 0.956-2.135 2.133-2.135 0 0 12.796 0 12.796 0 1.179 0 2.133 0.956 2.133 2.135 0 0 0 10.671 0 10.671zM25.537 15.003c-0.841 0-1.523-0.684-1.523-1.525s0.682-1.523 1.523-1.523c0.84 0 1.522 0.681 1.522 1.523s-0.682 1.525-1.522 1.525z"></path>
</symbol>
</defs>
</svg>
