<svg aria-hidden="true" style="position:absolute;width:0;height:0" xmlns="http://www.w3.org/2000/svg" overflow="hidden"><defs><symbol id="icon-CLOCK" viewBox="0 0 32 32"><path d="M29.873 10.826a5.5 5.5 0 0 0 1.186-3.415 5.53 5.53 0 0 0-5.529-5.529c-1.29 0-2.474.446-3.415 1.186a14.794 14.794 0 0 1 7.757 7.758zm-.226 6.115c0 3.626-1.423 6.911-3.729 9.355l1.909 1.909a1.396 1.396 0 1 1-1.974 1.974l-2.05-2.05a13.571 13.571 0 0 1-7.802 2.459c-2.898 0-5.579-.909-7.789-2.45l-2.036 2.036a1.41 1.41 0 0 1-2.41-.998c0-.389.158-.743.413-.998l1.894-1.893a13.585 13.585 0 0 1-3.719-9.344c0-7.537 6.11-13.647 13.647-13.647s13.647 6.11 13.647 13.647zM16 6.117c-5.978 0-10.824 4.846-10.824 10.824S10.022 27.765 16 27.765s10.823-4.846 10.823-10.824S21.977 6.117 16 6.117zm5.647 12.236a1.412 1.412 0 1 0 0-2.824h-4.235V9.411a1.412 1.412 0 0 0-2.824 0v7.53c0 .78.632 1.412 1.412 1.412h5.647zM2.153 11.017a15.109 15.109 0 0 1 7.923-7.923 5.62 5.62 0 0 0-3.488-1.211A5.647 5.647 0 0 0 .941 7.53c0 1.318.455 2.527 1.212 3.488z"/></symbol><symbol id="icon-BOOK" viewBox="0 0 32 32"><path d="M30.23 25.499L17 30.974a1.363 1.363 0 0 1-1.086 0L2.683 25.499a1.37 1.37 0 0 1-.855-1.27V3.2a1.37 1.37 0 0 1 1.895-1.267l.002.001.012.005 12.718 5.263 12.718-5.263.012-.005.002-.001A1.371 1.371 0 0 1 31.082 3.2v21.029c0 .574-.354 1.067-.855 1.27zM15.086 9.602L4.572 5.251v18.06l10.514 4.351V9.602zm13.257-4.351L17.829 9.602v18.06l10.514-4.351V5.251zm-8.339 6.3a1.372 1.372 0 0 0 1.135 2.497l5.029-2.286a1.372 1.372 0 0 0-1.135-2.497l-5.029 2.286zm0 5.029a1.371 1.371 0 1 0 1.135 2.497v.001l5.029-2.286a1.371 1.371 0 1 0-1.135-2.497l-5.029 2.286zm0 5.028a1.372 1.372 0 0 0 1.135 2.497l5.029-2.286a1.372 1.372 0 0 0-1.135-2.497l-5.029 2.286zM7.314 9.142a1.372 1.372 0 0 0-.568 2.62l5.029 2.286a1.371 1.371 0 0 0 1.134-2.497L7.88 9.265a1.361 1.361 0 0 0-.567-.123zm0 5.029a1.372 1.372 0 0 0-.568 2.62l5.029 2.286v-.001a1.371 1.371 0 0 0 1.134-2.497L7.88 14.293a1.377 1.377 0 0 0-.567-.123zm0 5.029a1.372 1.372 0 0 0-.568 2.62l5.029 2.286a1.371 1.371 0 0 0 1.134-2.497L7.88 19.323a1.361 1.361 0 0 0-.567-.123z"/></symbol><symbol id="icon-COMPUTER" viewBox="0 0 35 32"><path d="M32 25.806h-7.742-2.065v2.581l2.065 2.065v.516H10.839v-.516l2.065-2.065v-2.581H10.84 3.098a1.548 1.548 0 0 1-1.548-1.549V3.612c0-.855.693-1.548 1.548-1.548h28.903c.855 0 1.548.693 1.548 1.548v20.645c0 .855-.693 1.549-1.548 1.549zm-.516-21.677H3.613v17.548h27.871V4.129zm-17.032 7.225a1.548 1.548 0 0 0-1.094 2.643l2.064 2.065a1.544 1.544 0 0 0 2.19 0l4.129-4.129a1.548 1.548 0 1 0-2.19-2.19l-3.034 3.034-.97-.97a1.543 1.543 0 0 0-1.095-.453z"/></symbol><symbol id="icon-HOME" viewBox="0 0 34 32"><path d="M32.97 16.969c0-.383-.151-.729-.393-.989l.003-.004-5.428-5.428V6.302a1.455 1.455 0 0 0-2.91 0v1.337l-5.723-5.723-.001.001a1.455 1.455 0 0 0-.905-.454l-.004-.001-.065-.006-.012-.001c-.025-.002-.051-.002-.077-.002h-.001c-.001 0 0 0 0 0a1.45 1.45 0 0 0-1.048.447L2.386 15.92a1.454 1.454 0 1 0 2.029 2.084l.001.001L17.455 4.966v.001l.037.035v.001l13.031 13.031.004-.003c.26.242.606.393.989.393.803 0 1.455-.651 1.455-1.454zm-2.909 2.425v10.182c0 .803-.651 1.455-1.455 1.455h-2.909V19.394h-5.818v11.637H6.303a1.455 1.455 0 0 1-1.455-1.455v-3.879-1.939-4.364L17.454 6.788 30.06 19.394zm-15.031 0H9.212v5.819h5.818v-5.819z"/></symbol><symbol id="icon-IMAGE" viewBox="0 0 33 32"><path d="M29.714 31.086H3.2a1.37 1.37 0 0 1-1.371-1.372V3.2A1.37 1.37 0 0 1 3.2 1.829h26.514c.757 0 1.371.614 1.371 1.371v26.514c0 .757-.614 1.372-1.371 1.372zM28.343 4.571H4.572v23.771h23.771V4.571zM7.771 5.942H5.942V12.799a1.371 1.371 0 1 0 2.742 0V8.685h4.114a1.371 1.371 0 0 0 0-2.743H7.77zM5.943 20.114V26.971H12.8a1.371 1.371 0 0 0 0-2.743v-.001H8.686v-4.114a1.372 1.372 0 0 0-2.743 0zM20.114 5.942a1.371 1.371 0 0 0 0 2.743h4.114v4.114a1.372 1.372 0 1 0 2.743 0V7.771 5.942h-6.858zm0 18.286a1.371 1.371 0 0 0 0 2.743h6.858v-1.829-5.028a1.372 1.372 0 0 0-2.743 0v4.114h-4.114v.001z"/></symbol><symbol id="icon-LINE" viewBox="0 0 32 32"><path d="M28.8 31.085H2.286a1.371 1.371 0 0 1-1.371-1.372V3.199c0-.757.614-1.371 1.371-1.371H28.8c.757 0 1.372.614 1.372 1.371v26.514c0 .757-.614 1.372-1.372 1.372zM27.429 4.571H3.658v23.772h23.771V4.571zM5.683 16.675a1.371 1.371 0 1 0 1.491 2.301l2.867-1.792 6.086 4.057c.223.157.494.249.788.249.3 0 .577-.096.803-.26v.001l7.771-5.486v-.001a1.371 1.371 0 1 0-1.612-2.218l-6.984 4.929-6.062-4.041-.005.008a1.359 1.359 0 0 0-.768-.235c-.263 0-.508.074-.717.203l-.001-.001-3.657 2.286.001.001z"/></symbol><symbol id="icon-pinterest" viewBox="0 0 25 32"><path d="M11.091 19.701c-.231.919-.463 1.883-.704 2.825-.238.929-.446 1.871-.792 2.725-.573 1.414-1.3 2.78-2.255 3.886-.634.736-.499.442-.69.402-.146-.03-.158-.173-.187-.38-.155-1.124-.05-2.422.008-3.685.066-1.438.368-2.635.649-3.83.535-2.277 1.044-4.51 1.584-6.801.036-.152.133-.404.099-.491-.244-.637-.403-1.208-.473-1.876a5.968 5.968 0 0 1 .154-2.144c.305-1.167 1.007-2.202 2.09-2.58.688-.239 1.451-.131 1.914.146.477.285.804.735.957 1.374.163.679.043 1.491-.088 2.088-.295 1.344-.682 2.354-1.034 3.652-.175.644-.372 1.305-.209 1.999.15.638.482 1.077.935 1.407.469.342 1.025.529 1.793.503 1.355-.047 2.296-.914 2.926-1.731 1.006-1.307 1.616-3.072 1.848-5.171.075-.677.129-1.455.077-2.223-.096-1.417-.54-2.556-1.243-3.439-.669-.841-1.618-1.511-2.772-1.888-1.144-.374-2.729-.498-4.136-.257-2.557.438-4.36 1.891-5.423 3.898a7.815 7.815 0 0 0-.924 3.763c0 1.16.286 2.058.748 2.758.146.222.362.405.506.659.204.36-.031.895-.132 1.284-.121.469-.134 1.117-.682 1.128-.227.004-.512-.162-.704-.268-1.439-.796-2.314-2.243-2.673-4.121a9.864 9.864 0 0 1 0-3.573c.21-1.066.601-2.05 1.034-2.848.898-1.658 2.215-2.984 3.817-3.931 1.232-.729 2.621-1.239 4.311-1.485a18.003 18.003 0 0 1 1.771-.145c1.84-.087 3.514.33 4.774.893a9.752 9.752 0 0 1 3.288 2.368c.924 1.01 1.597 2.184 2.024 3.652.222.763.439 1.58.439 2.524 0 .947-.2 1.78-.34 2.613-.523 3.121-2.007 5.673-4.235 7.125a7.306 7.306 0 0 1-1.936.893c-.736.214-1.576.375-2.475.312a5.07 5.07 0 0 1-2.189-.637c-.596-.337-1.097-.749-1.452-1.373z"/></symbol><symbol id="icon-twitter" viewBox="0 0 37 32"><path d="M24.683 2.135c2.713-.049 4.156.94 5.535 2.197 1.171-.1 2.692-.754 3.588-1.21l.871-.476c-.512 1.383-1.206 2.465-2.272 3.287-.237.182-.472.429-.769.545v.017c1.52-.015 2.773-.701 3.963-1.073v.018c-.625.993-1.472 2.002-2.375 2.725l-1.093.868c.02 1.61-.024 3.145-.325 4.498-1.749 7.86-6.383 13.196-13.718 15.482-2.634.821-6.891 1.158-9.909.409-1.497-.371-2.848-.791-4.117-1.345a16.344 16.344 0 0 1-1.982-1.023l-.615-.374c.681.021 1.477.208 2.238.085.688-.111 1.364-.082 1.999-.221 1.584-.348 2.991-.808 4.203-1.517.587-.344 1.479-.747 1.896-1.243-.787.014-1.5-.169-2.084-.375-2.265-.8-3.584-2.271-4.442-4.48.686.076 2.664.254 3.126-.136-.864-.048-1.695-.548-2.289-.92-1.822-1.14-3.308-3.052-3.297-5.995l.717.34c.458.193.923.296 1.469.409.231.048.692.183.957.084h-.034c-.353-.409-.927-.683-1.281-1.124-1.169-1.453-2.265-3.689-1.572-6.353.176-.676.455-1.272.752-1.822l.034.017c.136.285.44.494.632.733.597.74 1.334 1.406 2.084 1.992 2.557 2 4.86 3.229 8.559 4.139.938.231 2.023.408 3.143.409-.315-.917-.214-2.4.034-3.288.623-2.231 1.977-3.839 3.963-4.7a8.407 8.407 0 0 1 1.555-.478l.854-.102z"/></symbol><symbol id="icon-instagram" viewBox="0 0 32 32"><path d="M27.086 30.628H5.143a3.657 3.657 0 0 1-3.657-3.657V5.028a3.657 3.657 0 0 1 3.657-3.657h21.943a3.657 3.657 0 0 1 3.657 3.657v21.943a3.657 3.657 0 0 1-3.657 3.657zM16.114 10.331a5.665 5.665 0 0 0-5.141 3.292h-.005l-.025.063c-.054.12-.101.243-.147.367-.022.06-.045.118-.065.178a5.715 5.715 0 0 0-.109.388c-.015.061-.034.121-.047.183-.03.138-.05.279-.07.42-.008.057-.02.113-.026.171a5.668 5.668 0 0 0 5.636 6.275 5.669 5.669 0 0 0 5.636-6.275c-.006-.058-.018-.114-.026-.171a5.746 5.746 0 0 0-.07-.42c-.013-.062-.032-.122-.047-.183a5.557 5.557 0 0 0-.109-.388c-.02-.06-.043-.118-.065-.178a5.847 5.847 0 0 0-.147-.367l-.025-.063h-.005a5.666 5.666 0 0 0-5.141-3.292zm11.337-4.206c0-.808-.655-1.463-1.463-1.463h-2.926c-.808 0-1.463.655-1.463 1.463v2.926c0 .808.655 1.463 1.463 1.463h2.926c.808 0 1.463-.655 1.463-1.463V6.125zm0 7.497h-2.697a8.96 8.96 0 1 1-17.28 0H4.777v12.251c0 .808.655 1.463 1.463 1.463h19.749c.808 0 1.463-.655 1.463-1.463V13.622z"/></symbol><symbol id="icon-facebook" viewBox="0 0 17 32"><path d="M14.443 2.426v4.547s-3.352-.334-4.191.95c-.459.702-.187 2.758-.227 4.234h4.446c-.376 1.726-.645 2.896-.921 4.39h-3.549v14.128H3.842V16.602H1.221v-4.446h2.592c.133-3.25.183-6.471 1.797-8.11 1.815-1.843 3.545-1.622 8.834-1.622z"/></symbol><symbol id="icon-ShoppingCart" viewBox="0 0 20 20"><path d="M18.726 4.663h.001l-2.475 5.5a.824.824 0 0 1-.697.485l-7.128.475.412 1.176H16.6a1.65 1.65 0 1 1-1.65 1.65h-7.7A1.65 1.65 0 1 1 5.6 12.3h1.49L3.916 3.225h-1.89a.825.825 0 0 1 0-1.65H4.5c.36 0 .663.232.776.553h.003l.48 1.372h12.216a.825.825 0 0 1 .751 1.163zm-12.39.487l1.526 4.357 7.089-.473 1.748-3.884H6.337z"/></symbol><symbol id="icon-magnifyingGlass" viewBox="0 0 20 20"><path d="M18.317 15.983a1.65 1.65 0 1 1-2.334 2.334l-4.836-4.836c-.982.58-2.124.919-3.347.919a6.6 6.6 0 1 1 6.6-6.6 6.558 6.558 0 0 1-.92 3.347l4.837 4.836zM7.8 2.849a4.95 4.95 0 1 0 0 9.9 4.95 4.95 0 0 0 0-9.9z"/></symbol></defs></svg>